<svg width="32" height="32" viewBox="0 0 32 32" fill="none" xmlns="http://www.w3.org/2000/svg">
  <!-- Sun background -->
  <circle cx="16" cy="14" r="8" fill="#F59E0B" opacity="0.8"/>
  
  <!-- Sun rays -->
  <path d="M16 2v4M25.66 6.34l-2.83 2.83M30 16h-4M25.66 25.66l-2.83-2.83M16 30v-4M6.34 25.66l2.83-2.83M2 16h4M6.34 6.34l2.83 2.83" 
        stroke="#F59E0B" stroke-width="2" stroke-linecap="round"/>
  
  <!-- Cloud -->
  <path d="M24 20c0-2.5-2-4.5-4.5-4.5-0.3 0-0.6 0-0.9 0.1C17.8 13.7 16 12.5 14 12.5c-2.5 0-4.5 2-4.5 4.5 0 0.3 0 0.6 0.1 0.9C8.7 18.7 8 19.8 8 21c0 1.7 1.3 3 3 3h12c1.7 0 3-1.3 3-3z" 
        fill="#60A5FA" opacity="0.9"/>
</svg>
